<svg xmlns="http://www.w3.org/2000/svg" width="32" height="32" viewBox="0 0 131.855 143.78">
  <g fill="#00aeef" transform="translate(-34.037502, -27.999985)">
    <path d="M 59.45 149.40 c -1.75 -1.45 -3.50 -2.85 -3.85 -3.10 -1.75 -1.45 -8.35 -9.35 -10.30 -12.25 -5.10 -7.80 -9.10 -17.90 -10.55 -26.55 -0.95 -6.10 -0.95 -16.90 0 -23 2.10 -12.95 8.45 -25.40 17.95 -35.40 5.70 -5.95 11.60 -10.35 18.55 -13.80 10.40 -5.15 19.35 -7.30 30.45 -7.30 11.10 0 20.85 2.25 30.40 7.05 4 2 10.70 6.20 11.20 7 0.10 0.25 -3.05 4.75 -7.10 10.05 -10.35 13.60 -10.65 13.95 -10.85 14.55 -0.15 0.45 -0.55 0.40 -1.40 -0.10 -0.65 -0.40 -2.45 -1.50 -3.95 -2.40 -1.50 -0.95 -4.55 -2.30 -6.75 -3 -3.65 -1.25 -4.70 -1.35 -11.50 -1.35 -6.90 0 -7.80 0.15 -11.25 1.35 -14.05 5.10 -23.15 16.40 -25 31.10 -1.50 11.90 4.10 25.05 14.15 33.10 l 1.90 1.50 -8.90 12.55 c -4.90 6.90 -9.15 12.55 -9.45 12.55 -0.25 0.05 -1.95 -1.10 -3.75 -2.55 z"/>
  </g>
  <g fill="#262161" transform="translate(-34.037502, -27.999985)">
    <path d="M 87.35 171.25 c -6 -1 -11.20 -2.50 -16.45 -4.75 -4.05 -1.80 -10.40 -5.30 -10.40 -5.80 0 -0.10 4.40 -5.70 9.75 -12.45 l 9.75 -12.20 3.15 1.50 c 14.40 6.70 33.85 1.75 43.60 -11.15 8.80 -11.60 10.20 -26.50 3.70 -39.30 l -2.40 -4.60 10.25 -11.40 c 5.65 -6.25 10.55 -11.40 10.85 -11.50 0.35 -0.05 1.85 1.55 3.35 3.65 9.70 13.20 14.10 27.75 13.30 43.75 -0.50 10.45 -2.70 18.75 -7.30 27.75 -9.35 18.35 -27.25 31.90 -47.50 36 -5.50 1.10 -18.25 1.40 -23.65 0.50 z"/>
  </g>
</svg>
